<svg version="1.1" xmlns="http://www.w3.org/2000/svg" xmlns:xlink="http://www.w3.org/1999/xlink" width="87.32201" height="87.32398" viewBox="0,0,87.32201,87.32398"><g transform="translate(-196.67743,-136.67744)"><g data-paper-data="{&quot;isPaintingLayer&quot;:true}" fill="#d99e82" fill-rule="nonzero" stroke="none" stroke-width="1" stroke-linecap="butt" stroke-linejoin="miter" stroke-miterlimit="10" stroke-dasharray="" stroke-dashoffset="0" style="mix-blend-mode: normal"><path d="M280.76136,224.00142c-0.82849,0 -1.65698,-0.31661 -2.29021,-0.94721l-80.84584,-80.84848c-1.26384,-1.26384 -1.26384,-3.31657 0,-4.58041c1.26384,-1.26384 3.31657,-1.26384 4.58041,0l80.84584,80.84584c1.26384,1.26384 1.26384,3.31657 0,4.58041c-0.63324,0.6306 -1.46173,0.94985 -2.29021,0.94985z"/><path d="M280.76136,224.00142c-0.82849,0 -1.65698,-0.31661 -2.29021,-0.94721l-19.84141,-19.84141c-1.26648,-1.26384 -1.26648,-3.31657 0,-4.58041c1.26648,-1.26384 3.31393,-1.26384 4.58041,0l19.84141,19.84141c1.26384,1.26384 1.26384,3.31657 0,4.58041c-0.63324,0.62796 -1.46173,0.94721 -2.29021,0.94721z"/></g></g></svg>